<?xml version="1.0" standalone="no"?>
<!DOCTYPE svg PUBLIC "-//W3C//DTD SVG 20010904//EN"
 "http://www.w3.org/TR/2001/REC-SVG-20010904/DTD/svg10.dtd">
<svg version="1.0" xmlns="http://www.w3.org/2000/svg"
 width="512.000000pt" height="504.000000pt" viewBox="0 0 512.000000 504.000000"
 preserveAspectRatio="xMidYMid meet">

<g transform="translate(0.000000,504.000000) scale(0.100000,-0.100000)"
fill="#000000" stroke="none">
<path d="M465 4611 c-99 -28 -202 -89 -274 -161 -76 -75 -121 -147 -159 -252
l-27 -73 -3 -1217 c-3 -1362 -6 -1297 68 -1444 76 -151 210 -266 373 -321 l82
-28 641 -5 c514 -4 644 -8 657 -18 9 -8 127 -161 262 -342 135 -180 261 -340
280 -354 63 -49 114 -66 195 -66 81 0 132 17 195 66 19 14 145 174 280 354
135 181 253 334 262 342 11 9 67 14 195 18 174 5 180 6 199 29 25 30 24 76 -1
101 -19 19 -33 20 -197 20 -98 0 -194 -5 -214 -10 -19 -5 -53 -25 -75 -44 -22
-19 -150 -181 -284 -359 -262 -350 -280 -367 -361 -367 -79 0 -100 21 -362
371 -135 179 -261 339 -281 356 -21 17 -54 35 -75 42 -27 8 -215 11 -627 11
-348 0 -616 4 -654 10 -143 23 -292 130 -353 253 -59 122 -57 64 -57 1343 0
737 4 1191 10 1225 23 122 121 262 227 325 95 55 108 57 410 63 274 6 283 7
304 28 27 27 29 75 4 103 -17 19 -30 20 -299 19 -235 0 -291 -3 -341 -18z"/>
<path d="M1335 4610 c-25 -28 -23 -76 4 -103 l22 -22 1622 -5 1622 -5 55 -22
c72 -30 104 -52 168 -115 61 -60 117 -165 132 -247 6 -34 10 -488 10 -1225 0
-1284 3 -1222 -60 -1346 -63 -124 -207 -227 -350 -250 -36 -5 -194 -10 -353
-10 -274 0 -288 -1 -307 -20 -25 -25 -26 -71 -1 -101 l19 -24 339 0 338 1 82
27 c163 54 297 170 373 321 74 147 71 82 68 1444 l-3 1217 -27 73 c-70 194
-211 336 -398 404 l-65 23 -1636 3 c-1631 2 -1636 2 -1654 -18z"/>
<path d="M2310 3994 c-331 -86 -600 -333 -709 -651 -11 -35 -28 -105 -38 -157
l-16 -94 -46 -12 c-188 -47 -346 -208 -396 -405 -31 -121 -16 -242 45 -371 68
-141 222 -261 378 -293 31 -6 163 -11 312 -11 l260 0 0 89 0 90 -267 3 c-255
3 -271 5 -328 27 -72 29 -159 112 -195 186 -22 43 -25 64 -25 155 0 101 1 108
34 168 59 109 156 176 280 191 75 10 106 22 120 50 6 10 15 62 20 117 17 158
49 254 128 377 235 369 721 486 1105 265 39 -23 100 -69 136 -102 134 -126
203 -242 252 -428 16 -63 39 -84 103 -98 188 -39 338 -195 367 -382 22 -140
-28 -288 -129 -388 -117 -115 -203 -140 -493 -140 l-198 0 0 -90 0 -90 218 0
c249 0 319 11 427 65 93 46 159 98 218 170 210 260 192 620 -43 856 -76 76
-167 133 -256 159 -38 11 -42 16 -59 69 -48 152 -130 286 -248 405 -137 138
-286 223 -473 270 -140 36 -345 36 -484 0z"/>
<path d="M2523 2904 c-15 -6 -111 -96 -213 -198 l-185 -186 60 -60 c33 -33 64
-60 70 -60 6 0 53 43 105 95 l95 95 5 -432 5 -433 90 0 90 0 3 433 c1 237 5
432 9 432 3 0 48 -43 100 -95 52 -52 97 -95 101 -95 11 0 122 114 122 124 0
20 -378 383 -403 388 -14 3 -38 -1 -54 -8z"/>
</g>
</svg>
